<svg id="Layer_1" data-name="Layer 1" xmlns="http://www.w3.org/2000/svg" viewBox="0 0 80.18 122.41"><defs><style>.cls-1{opacity:0.1;}.cls-2{fill:none;stroke:#ed5a2e;stroke-miterlimit:10;}</style></defs><g class="cls-1"><path class="cls-2" d="M33.09,48H77.32a40.57,40.57,0,0,0,1.86-10.35C79.18,17.41,61.68,1,40.09,1S1,17.41,1,37.66A41,41,0,0,0,2.86,48Zm6.2-22.49h9.48V40.3H39.29a7.65,7.65,0,0,1-7.88-7.39A7.65,7.65,0,0,1,39.29,25.52Z"/><path class="cls-2" d="M46.05,77.67c0,3.11,1.29,4.4,4.69,4.4H63.82c3.78-8.2,7.34-16.44,10.08-23.8H46.05Z"/><path class="cls-2" d="M46.61,92.33q-13.51,0-13.52-12.68V58.27H6.28c7.26,19.5,20.31,45.24,27.9,59.69A6.8,6.8,0,0,0,46,118c3.51-6.7,8.21-15.83,13-25.63Z"/></g></svg>