<svg id="Layer_1" data-name="Layer 1" xmlns="http://www.w3.org/2000/svg" viewBox="0 0 180.2 180.2"><defs><style>.cls-1{fill:#ed5a2e;}.cls-2{fill:#fddfde;}</style></defs><rect class="cls-1" width="180.2" height="180.2" rx="54.24"/><path class="cls-2" d="M83.1,76.91h44.23a40.63,40.63,0,0,0,1.86-10.36c0-20.24-17.5-36.65-39.09-36.65S51,46.31,51,66.55a41.08,41.08,0,0,0,1.86,10.36Zm6.2-22.5h9.49V69.2H89.3a7.41,7.41,0,1,1,0-14.79Z"/><path class="cls-2" d="M96.07,106.57c0,3.1,1.28,4.4,4.69,4.4h13.07c3.78-8.2,7.34-16.44,10.09-23.8H96.07Z"/><path class="cls-2" d="M96.62,121.23q-13.52,0-13.52-12.68V87.17H56.29c7.26,19.5,20.31,45.24,27.9,59.69a6.8,6.8,0,0,0,11.83,0c3.51-6.7,8.21-15.83,13-25.63Z"/></svg>